<svg xmlns="http://www.w3.org/2000/svg" viewBox="0 0 1200 750" role="img" aria-labelledby="t"><title id="t">Illustration projets IFICS</title><rect width="1200" height="750" rx="42" fill="#f4f7f5"/><rect x="140" y="130" width="570" height="480" rx="30" fill="#fff" stroke="#cbd8d0" stroke-width="4"/><rect x="195" y="190" width="195" height="150" rx="18" fill="#e5f3eb"/><rect x="420" y="190" width="235" height="34" rx="12" fill="#0d3f2c"/><rect x="420" y="246" width="175" height="20" rx="10" fill="#b2c6ba"/><rect x="420" y="286" width="205" height="20" rx="10" fill="#d4dfd8"/><path d="M205 405h440M205 462h440M205 519h330" stroke="#dbe4de" stroke-width="22" stroke-linecap="round"/><circle cx="850" cy="238" r="72" fill="#d8ac87"/><path d="M781 232c8-76 119-90 144-19 12 33 1 55-10 74H797c-15-18-20-34-16-55z" fill="#2d463a"/><path d="M765 566c20-130 180-144 218 0z" fill="#1d6f4d"/><rect x="820" y="382" width="180" height="126" rx="20" fill="#fff" stroke="#b9cbc0" stroke-width="4"/><path d="M850 420h118M850 455h83" stroke="#7f9b8c" stroke-width="11" stroke-linecap="round"/><path d="M925 335c50-67 96-95 139-112" fill="none" stroke="#bd8d37" stroke-width="13" stroke-linecap="round"/><circle cx="1070" cy="219" r="31" fill="#bd8d37"/></svg>