<svg xmlns="http://www.w3.org/2000/svg" viewBox="0 0 1200 750" role="img" aria-labelledby="t"><title id="t">Illustration ressources IFICS</title><rect width="1200" height="750" rx="42" fill="#f7f8f6"/><rect x="150" y="145" width="320" height="455" rx="26" fill="#fff" stroke="#d0dbd4" stroke-width="4"/><rect x="195" y="195" width="230" height="52" rx="14" fill="#0d3f2c"/><path d="M205 315h210M205 370h175M205 425h205M205 480h150" stroke="#a6baad" stroke-width="16" stroke-linecap="round"/><rect x="550" y="180" width="500" height="365" rx="28" fill="#fff" stroke="#c7d5cd" stroke-width="4"/><rect x="610" y="235" width="180" height="180" rx="24" fill="#e5f3eb"/><path d="M655 290h90M655 335h120M655 380h70" stroke="#1d6f4d" stroke-width="13" stroke-linecap="round"/><circle cx="905" cy="300" r="70" fill="#bd8d37" opacity=".85"/><path d="M874 299l20 23 45-57" fill="none" stroke="#fff" stroke-width="14" stroke-linecap="round" stroke-linejoin="round"/><rect x="610" y="455" width="375" height="32" rx="16" fill="#d7e3dc"/><circle cx="1040" cy="115" r="38" fill="#e5f3eb"/></svg>